<?xml version="1.0" standalone="no"?>
<!DOCTYPE svg PUBLIC "-//W3C//DTD SVG 20010904//EN"
 "http://www.w3.org/TR/2001/REC-SVG-20010904/DTD/svg10.dtd">
<svg version="1.0" xmlns="http://www.w3.org/2000/svg"
 width="1024.000000pt" height="1024.000000pt" viewBox="0 0 1024.000000 1024.000000"
 preserveAspectRatio="xMidYMid meet">
<metadata>
Created by potrace 1.14, written by Peter Selinger 2001-2017
</metadata>
<g transform="translate(0.000000,1024.000000) scale(0.100000,-0.100000)"
fill="#000000" stroke="none">
<path d="M3286 9639 c-10 -23 -11 -245 -2 -309 4 -30 14 -73 21 -95 29 -90 27
-102 -8 -43 -18 32 -37 61 -41 65 -7 8 -5 -44 9 -157 l7 -55 -26 44 c-14 23
-26 45 -26 48 0 4 -58 145 -87 211 -8 17 -18 32 -23 32 -9 0 -15 -34 -12 -70
2 -30 12 -106 17 -130 3 -14 7 -41 10 -60 8 -49 34 -150 46 -182 18 -45 4 -54
-21 -14 -20 33 -24 36 -33 21 -9 -16 -6 -53 9 -102 13 -47 -13 -21 -35 35 -28
67 -48 102 -60 102 -17 0 -21 -84 -7 -131 l14 -46 -81 -19 c-45 -10 -86 -19
-92 -20 -5 -1 -37 -11 -70 -22 -183 -62 -599 -196 -645 -207 -23 -5 -151 -54
-188 -71 -49 -23 -92 -54 -138 -100 -124 -125 -152 -225 -158 -566 -1 -64 -5
-120 -8 -124 -4 -3 -20 3 -36 15 -17 12 -33 21 -36 21 -3 0 -90 48 -193 106
-103 59 -208 118 -233 132 -154 86 -289 163 -383 218 -59 35 -110 64 -113 64
-2 0 -10 5 -17 10 -19 17 -269 169 -299 182 -16 7 -28 16 -28 20 0 4 -5 8 -11
8 -6 0 -23 8 -37 19 -32 22 -72 36 -72 24 0 -7 65 -90 186 -240 22 -27 70 -81
108 -121 l70 -72 -42 14 c-23 8 -42 11 -42 6 0 -5 37 -45 82 -89 78 -77 89
-93 50 -71 -9 5 -55 27 -102 48 -47 21 -115 57 -151 79 -36 22 -76 44 -88 48
-22 7 -21 4 10 -36 91 -115 173 -203 228 -244 55 -41 52 -53 -5 -20 -25 15
-48 24 -51 21 -6 -6 44 -64 151 -175 49 -51 55 -60 31 -49 -16 8 -50 21 -75
28 -25 8 -65 24 -90 36 -25 12 -47 20 -49 18 -8 -8 37 -64 123 -151 50 -50
127 -129 171 -175 45 -45 103 -102 130 -126 28 -24 46 -41 40 -39 -5 3 -55 22
-110 42 -55 21 -121 53 -148 71 -54 39 -57 40 -57 17 0 -19 100 -117 199 -194
39 -30 70 -59 71 -65 1 -31 191 -174 318 -238 28 -14 52 -28 52 -29 0 -2 -26
0 -58 4 -148 19 -153 20 -337 79 l-90 29 40 -36 c22 -19 87 -66 145 -105 58
-38 119 -82 135 -97 91 -85 428 -280 543 -316 41 -12 18 -15 -44 -5 -32 5 -78
12 -102 15 -146 18 -419 94 -460 127 -7 6 -15 9 -17 6 -3 -3 27 -30 67 -62 40
-31 78 -61 85 -66 7 -6 17 -10 22 -10 6 0 29 -19 53 -43 24 -24 70 -61 103
-82 175 -112 269 -165 329 -185 52 -18 66 -27 66 -42 0 -19 -5 -20 -57 -14
-32 3 -68 8 -80 11 -13 3 -31 7 -40 9 -10 2 -38 7 -63 11 -79 13 -93 16 -184
35 -49 11 -91 18 -93 16 -2 -2 41 -31 95 -65 54 -33 107 -70 117 -80 9 -11 36
-30 59 -42 147 -76 252 -134 258 -143 4 -6 6 -20 4 -31 -3 -17 -11 -20 -52
-19 -61 0 -267 21 -291 29 -23 8 -14 -13 15 -33 15 -10 70 -40 122 -67 52 -26
102 -52 110 -56 8 -4 39 -18 68 -30 55 -24 64 -38 75 -129 l4 -35 -61 -4 c-34
-2 -89 -4 -123 -4 -52 -1 -60 -3 -50 -15 17 -21 114 -66 190 -88 69 -19 72
-22 81 -84 3 -19 10 -60 16 -90 18 -89 23 -141 14 -139 -5 1 -22 1 -38 0 -24
-1 -27 -3 -16 -16 7 -8 18 -15 24 -15 19 -1 53 -35 59 -60 43 -181 272 -888
322 -995 62 -131 246 -510 285 -587 22 -42 40 -79 40 -82 0 -3 -55 -4 -122 -1
-161 7 -208 12 -378 41 -47 8 -103 17 -126 19 -36 5 -123 29 -354 99 -69 22
-267 99 -334 132 -16 8 -33 14 -39 14 -5 0 -121 56 -257 124 -229 114 -306
144 -326 123 -10 -9 26 -43 131 -122 50 -38 135 -105 190 -150 55 -45 142
-107 193 -139 89 -56 106 -70 80 -61 -36 11 -153 36 -171 37 -35 1 -190 51
-269 86 -27 12 -48 18 -48 13 0 -12 176 -130 305 -205 55 -31 107 -61 115 -66
8 -5 31 -17 50 -27 19 -9 68 -36 108 -60 41 -24 77 -43 81 -43 4 0 16 -7 27
-16 10 -8 15 -13 9 -11 -5 3 -41 8 -80 12 -38 3 -81 8 -95 9 -14 2 -44 7 -66
10 -23 3 -86 17 -140 31 -166 42 -164 32 8 -53 239 -117 325 -156 448 -203 47
-17 88 -35 92 -38 4 -4 -29 -6 -72 -5 -76 2 -107 -10 -57 -21 12 -3 78 -18
147 -34 69 -16 154 -34 190 -41 36 -7 70 -17 75 -23 7 -7 7 -8 0 -4 -5 3 -35
8 -65 12 -62 7 -104 13 -140 20 -14 3 -45 7 -70 10 -25 3 -56 7 -70 10 -14 2
-47 7 -75 10 -66 7 -106 15 -117 21 -15 10 -8 -13 13 -40 12 -15 48 -40 81
-57 76 -38 306 -115 389 -129 35 -6 73 -13 84 -15 11 -2 24 -4 29 -4 5 -1 7
-4 3 -7 -3 -4 -59 -8 -123 -10 -125 -3 -255 -12 -261 -17 -2 -3 109 -30 212
-51 11 -3 52 -11 90 -19 39 -8 97 -18 130 -21 33 -3 71 -8 85 -11 14 -3 66 -7
115 -10 50 -3 128 -8 174 -10 47 -3 86 -7 88 -9 4 -4 -110 -46 -125 -46 -6 0
-14 -5 -17 -11 -7 -10 79 -7 155 6 14 2 52 6 85 9 l60 5 -120 -59 c-118 -58
-119 -59 -70 -54 28 2 64 7 80 10 17 3 44 7 60 10 17 2 55 9 85 14 30 5 75 12
100 15 25 3 127 28 228 56 101 28 185 49 187 47 5 -6 126 -153 138 -168 171
-218 401 -457 673 -696 288 -256 685 -536 1197 -845 l44 -27 209 127 c115 70
250 155 299 189 206 142 399 284 540 398 132 106 173 141 269 229 132 121 198
180 216 194 13 9 31 24 41 34 11 9 21 17 24 17 14 1 42 16 59 32 10 9 22 15
26 13 5 -3 10 2 14 10 3 8 12 12 21 9 10 -4 15 -2 13 6 -2 7 6 14 16 16 10 1
23 9 27 16 5 7 9 9 9 3 0 -6 3 -6 8 1 4 6 30 24 57 39 28 16 53 34 57 40 4 5
8 7 8 3 0 -7 60 29 88 52 12 11 86 5 106 -8 6 -3 22 -7 36 -7 14 -1 36 -7 50
-12 27 -11 110 -28 123 -25 4 1 7 -2 7 -8 0 -6 3 -9 8 -8 9 2 121 -21 142 -29
8 -3 21 -7 29 -9 7 -1 36 -8 65 -15 64 -16 56 -14 91 -23 17 -5 46 -12 65 -17
19 -5 50 -22 69 -38 18 -16 57 -39 85 -51 28 -12 59 -26 69 -31 10 -6 22 -7
27 -4 5 3 11 1 15 -4 3 -6 12 -8 20 -4 8 3 15 0 15 -5 0 -7 24 -10 60 -9 52 2
64 6 95 34 54 50 73 109 53 170 -5 18 -14 33 -19 33 -6 0 -8 4 -5 8 11 19 -67
69 -119 77 -11 1 -36 6 -55 10 -33 7 -131 9 -225 4 -22 -1 -78 8 -125 21 -47
12 -94 24 -105 26 -33 6 -57 12 -120 30 -33 9 -67 18 -75 19 -8 2 -17 4 -20 5
-3 1 -9 3 -15 4 -56 10 -85 20 -85 27 0 5 7 9 16 9 9 0 27 9 41 20 14 11 32
20 39 20 8 0 14 4 14 9 0 13 74 40 81 30 3 -6 21 -11 41 -13 27 -3 52 6 109
40 41 24 88 51 106 60 29 16 50 54 44 79 -2 6 -5 19 -7 29 -2 11 -7 22 -11 25
-11 8 -47 65 -46 71 1 3 -6 13 -14 23 -9 9 -13 17 -9 17 4 0 0 7 -8 16 -9 8
-32 45 -53 82 -20 37 -42 70 -47 74 -7 5 -7 8 -1 8 6 0 6 3 -1 8 -13 9 -58 83
-61 100 -1 14 35 87 123 244 23 40 54 102 70 138 16 36 32 67 36 68 5 2 6 7 3
12 -3 4 2 21 10 36 8 16 15 32 15 36 0 3 20 49 45 102 25 53 45 99 45 101 0 2
20 46 44 97 70 148 93 201 109 249 9 24 50 143 92 264 42 121 83 238 90 260
33 95 165 654 190 800 15 88 28 167 30 175 1 8 6 44 10 80 4 36 9 76 10 90 2
14 6 63 10 110 3 47 8 101 10 120 5 40 13 179 20 325 2 55 8 165 12 245 7 157
7 217 -1 1075 -3 314 -9 597 -15 630 -23 148 -168 320 -312 370 -24 8 -53 19
-64 24 -63 30 -448 157 -575 191 -47 12 -94 26 -105 30 -94 37 -685 177 -815
194 -25 3 -54 8 -65 10 -11 2 -42 7 -70 10 -27 4 -57 9 -65 11 -8 3 -31 7 -50
9 -45 6 -100 15 -170 26 -30 5 -75 12 -100 15 -25 3 -52 8 -60 10 -8 2 -37 6
-65 10 -27 3 -80 10 -118 15 -37 6 -89 12 -115 15 -26 3 -74 10 -107 15 -33 5
-96 12 -140 15 -44 3 -102 8 -130 10 -112 8 -292 18 -325 18 -48 0 -241 -12
-265 -17 -11 -2 -58 -7 -105 -11 -47 -3 -92 -8 -100 -10 -8 -2 -46 -6 -85 -10
-38 -3 -83 -8 -100 -10 -16 -2 -61 -7 -100 -11 -142 -13 -224 -22 -280 -29
-16 -3 -55 -7 -85 -10 -30 -3 -66 -7 -80 -10 -14 -3 -63 -12 -110 -20 -47 -8
-94 -17 -105 -19 -11 -2 -38 -7 -60 -10 l-40 -6 -41 72 c-104 184 -255 508
-297 638 -4 13 -6 13 -11 -1z m-1408 -7026 c-10 -2 -26 -2 -35 0 -10 3 -2 5
17 5 19 0 27 -2 18 -5z"/>
</g>
</svg>
